<svg width="32" height="33" viewBox="0 0 32 33" fill="none" xmlns="http://www.w3.org/2000/svg">
<path d="M29.3 32.25L18.275 21.225C17.4 21.925 16.3937 22.4792 15.2562 22.8875C14.1187 23.2958 12.9083 23.5 11.625 23.5C8.44583 23.5 5.75521 22.399 3.55313 20.1969C1.35104 17.9948 0.25 15.3042 0.25 12.125C0.25 8.94583 1.35104 6.25521 3.55313 4.05313C5.75521 1.85104 8.44583 0.75 11.625 0.75C14.8042 0.75 17.4948 1.85104 19.6969 4.05313C21.899 6.25521 23 8.94583 23 12.125C23 13.4083 22.7958 14.6187 22.3875 15.7562C21.9792 16.8937 21.425 17.9 20.725 18.775L31.75 29.8L29.3 32.25ZM11.625 20C13.8125 20 15.6719 19.2344 17.2031 17.7031C18.7344 16.1719 19.5 14.3125 19.5 12.125C19.5 9.9375 18.7344 8.07812 17.2031 6.54688C15.6719 5.01562 13.8125 4.25 11.625 4.25C9.4375 4.25 7.57812 5.01562 6.04688 6.54688C4.51562 8.07812 3.75 9.9375 3.75 12.125C3.75 14.3125 4.51562 16.1719 6.04688 17.7031C7.57812 19.2344 9.4375 20 11.625 20Z" fill="#1D1B20"/>
</svg>
