<svg xmlns="http://www.w3.org/2000/svg" width="24" height="24" fill="currentColor" color="white" viewBox="0 0 24 24">
  <path d="M19.14,12.936a7.87,7.87,0,0,0,.053-.936,7.87,7.87,0,0,0-.053-.936l2.036-1.58a.5.5,0,0,0,.12-.638l-1.928-3.338a.5.5,0,0,0-.607-.214l-2.4.96a7.993,7.993,0,0,0-1.617-.936L14.5,2.5a.5.5,0,0,0-.5-.5H10a.5.5,0,0,0-.5.5L9.327,5.354a7.993,7.993,0,0,0-1.617.936l-2.4-.96a.5.5,0,0,0-.607.214L2.775,8.882a.5.5,0,0,0,.12.638l2.036,1.58a7.87,7.87,0,0,0,0,1.872L2.9,14.572a.5.5,0,0,0-.12.638l1.928,3.338a.5.5,0,0,0,.607.214l2.4-.96a7.993,7.993,0,0,0,1.617.936L9.5,21.5a.5.5,0,0,0,.5.5h4a.5.5,0,0,0,.5-.5l.173-2.854a7.993,7.993,0,0,0,1.617-.936l2.4.96a.5.5,0,0,0,.607-.214l1.928-3.338a.5.5,0,0,0-.12-.638Zm-7.14,2.564A3.5,3.5,0,1,1,15.5,12,3.5,3.5,0,0,1,12,15.5Z"/>
</svg>
